<svg width="106" height="24" viewBox="0 0 106 24" fill="none" xmlns="http://www.w3.org/2000/svg">
<g clip-path="url(#clip0_61_750)">
<path d="M43.9334 14.2056L51.0709 23.4873H56.4981L47.8507 12.4353C47.3792 11.821 47.1786 11.3712 47.1786 10.9214C47.1786 10.4716 47.4796 10.0508 48.0514 9.44135L56.3326 0.449821H50.8703L43.8331 8.11609C42.7597 9.30593 42.2581 10.1475 42.2581 10.9504C42.2581 11.9855 42.86 12.8222 43.9334 14.2056ZM81.6375 12.0145C81.6375 5.3156 86.4979 0 93.7358 0C100.974 0 106 5.02539 106 12.0145C106 19.0036 100.838 23.9323 93.7659 23.9323C86.1919 23.9371 81.6375 18.8489 81.6375 12.0145ZM101.305 11.9855C101.305 7.28416 98.3253 3.80169 93.7659 3.80169C89.2065 3.80169 86.3273 7.21645 86.3273 11.9855C86.3273 16.7545 89.4121 20.1983 93.7659 20.1983C98.3554 20.1983 101.305 16.6578 101.305 11.9855ZM68.4659 23.4873H59.9891V19.6856H69.3086C71.987 19.6856 73.3614 19.0085 73.3614 17.2043C73.3614 15.5937 72.288 15.0762 69.3738 14.3071L66.595 13.5671C61.3986 12.1838 59.6581 10.5732 59.6581 6.77146C59.6581 2.96977 61.9955 0.449821 67.6584 0.449821H76.1352V4.31923H67.5881C65.2106 4.31923 64.0369 4.83192 64.0369 6.47642C64.0369 8.02418 65.1103 8.7642 67.859 9.44135L70.7431 10.1524C75.5684 11.3422 77.8506 13.0206 77.8506 16.7545C77.8455 21.0689 75.3677 23.4825 68.4659 23.4873ZM26.6738 24C20.5394 24 16.8528 20.8416 16.8528 14.6602V0.483676H21.342V14.399C21.342 17.7509 22.4505 20.1983 26.6688 20.1983C30.8871 20.1983 31.9957 17.9105 31.9957 14.3652V0.449821H36.4848V14.6264C36.4949 20.7449 32.8082 24 26.6738 24ZM4.52382 0.483676H-0.000488281V19.1052C-0.000488281 22.1959 1.33876 23.4873 4.05233 23.4873H12.8V19.7195H6.22921C4.92509 19.7195 4.5188 19.3325 4.5188 18.1088V0.483676H4.52382Z" fill="white"/>
</g>
<defs>
<clipPath id="clip0_61_750">
<rect width="106" height="24" fill="white"/>
</clipPath>
</defs>
</svg>
