<?xml version="1.0" encoding="utf-8"?>
<!-- Generator: Adobe Illustrator 26.0.3, SVG Export Plug-In . SVG Version: 6.00 Build 0)  -->
<svg version="1.1" id="Layer_1" xmlns="http://www.w3.org/2000/svg" xmlns:xlink="http://www.w3.org/1999/xlink" x="0px" y="0px"
	 viewBox="0 0 35 35" style="enable-background:new 0 0 35 35;" xml:space="preserve">
<style type="text/css">
	.st0{fill:#75777A;}
</style>
<path class="st0" d="M34.4,14.8L30,7.4V7.3c0-0.1-1.2-1.5-3.1-2.3l-5.3-2.3c-0.1-0.1-0.3,0-0.4,0C21.1,2.8,21,2.9,21,3
	s-0.3,2.9-3.5,2.9h-0.1c-0.8,0-2.7-0.3-3.1-2.9c0-0.1-0.1-0.2-0.2-0.3c-0.1-0.1-0.3-0.1-0.4,0L7.8,5.2c-0.1,0-2.1,0.7-2.7,2.2
	l-4.3,7.5c-0.1,0.1-0.1,0.2,0,0.3c0,0.1,0.1,0.2,0.2,0.3l5.3,3.1c0.2,0.1,0.4,0.1,0.6-0.1l1.3-1.9L8.4,32c0,0.2,0.2,0.4,0.4,0.4H26
	c0.2,0,0.4-0.2,0.4-0.4V15.9l1.9,2.4c0.1,0.2,0.4,0.2,0.5,0.1l5.4-2.9c0.1-0.1,0.2-0.2,0.2-0.3C34.4,15.1,34.4,14.9,34.4,14.8
	L34.4,14.8z M28.7,17.4l-2.3-3c0-0.3-0.1-1.5,0.5-2.6l-0.8-0.4c-0.6,1.2-0.6,2.5-0.6,2.9v0.1v16.9H9.1L9,15.2C9,15.1,9,15,8.9,15H9
	c0-0.1-0.1-2.5-0.4-3.5l-0.8,0.3C8,12.5,8.1,14.3,8.1,15h0.1l-1.9,2.6L1.7,15l4.1-7.2V7.7C6.4,6.6,8.1,6,8.1,6l5.4-2.3
	c0.6,2.3,2.3,3.1,3.9,3.1c0.1,0,0.2,0,0.2,0c2.9,0,3.9-2.1,4.2-3.1l4.8,2.1c1.5,0.6,2.6,1.8,2.7,2l4.1,7.1L28.7,17.4z"/>
</svg>
