<?xml version="1.0" encoding="utf-8"?>
<!-- Generator: Adobe Illustrator 26.0.3, SVG Export Plug-In . SVG Version: 6.00 Build 0)  -->
<svg version="1.1" id="Layer_1" xmlns="http://www.w3.org/2000/svg" xmlns:xlink="http://www.w3.org/1999/xlink" x="0px" y="0px"
	 viewBox="0 0 35 35" style="enable-background:new 0 0 35 35;" xml:space="preserve">
<style type="text/css">
	.st0{fill:#75777A;}
</style>
<g>
	<path class="st0" d="M17.7,32.5c-8.6,0-15.4-8.3-15.7-8.7c-0.1-0.2-0.1-0.4,0-0.6c0.3-0.4,7.1-8.7,15.7-8.7
		c8.5,0,15.4,8.3,15.7,8.7c0.1,0.2,0.1,0.4,0,0.6C33.1,24.2,26.3,32.5,17.7,32.5z M3.1,23.5c1.3,1.5,7.4,8,14.6,8
		c7.2,0,13.3-6.5,14.6-8c-1.3-1.5-7.5-8-14.6-8S4.4,22,3.1,23.5z"/>
</g>
<g>
	<path class="st0" d="M17.7,29.3c-3.2,0-5.8-2.6-5.8-5.8s2.6-5.8,5.8-5.8s5.8,2.6,5.8,5.8S20.9,29.3,17.7,29.3z M17.7,18.7
		c-2.6,0-4.8,2.2-4.8,4.8s2.2,4.8,4.8,4.8c2.6,0,4.8-2.2,4.8-4.8S20.3,18.7,17.7,18.7z"/>
</g>
<g>
	<path class="st0" d="M3.6,13.8c-0.6,0-1.2-0.4-1.6-1c-0.9-1.4-0.8-3.7,1-5.1c2.8-2.2,12.3-5.2,18.2-5.2c5.5,0,9.3,3.4,11.6,5.4
		c0.3,0.3,0.5,0.5,0.8,0.7c0.2,0.2,0.2,0.4,0.1,0.7c-0.1,0.2-0.4,0.3-0.6,0.2c-2-1-7.6-2.8-11.5-1.8c-4.1,1.1-15.4,5.1-17,6
		C4.1,13.8,3.8,13.8,3.6,13.8z M21.1,3.5c-5.7,0-15,2.9-17.6,5c-1.4,1.2-1.3,2.9-0.8,3.8c0.2,0.2,0.6,0.8,1.1,0.5
		c1.8-1,13.2-5,17.2-6c3-0.8,6.8-0.1,9.6,0.8C28.4,5.7,25.3,3.5,21.1,3.5z"/>
</g>
</svg>
