<?xml version="1.0" encoding="utf-8"?>
<!-- Generator: Adobe Illustrator 26.0.3, SVG Export Plug-In . SVG Version: 6.00 Build 0)  -->
<svg version="1.1" id="Layer_1" xmlns="http://www.w3.org/2000/svg" xmlns:xlink="http://www.w3.org/1999/xlink" x="0px" y="0px"
	 viewBox="0 0 35 35" style="enable-background:new 0 0 35 35;" xml:space="preserve">
<style type="text/css">
	.st0{fill:#75777A;}
</style>
<g>
	<g>
		<path class="st0" d="M17.5,26.5c-8.6,0-15.4-8.3-15.7-8.7c-0.1-0.2-0.1-0.4,0-0.6c0.3-0.4,7-8.7,15.7-8.7c8.6,0,15.4,8.3,15.7,8.7
			c0.1,0.2,0.1,0.4,0,0.6C32.9,18.2,26.1,26.5,17.5,26.5z M2.9,17.5c1.3,1.5,7.4,8,14.6,8c7.2,0,13.3-6.5,14.6-8
			c-1.3-1.5-7.4-8-14.6-8C10.3,9.5,4.2,16,2.9,17.5z"/>
	</g>
	<g>
		<path class="st0" d="M17.5,23.3c-3.2,0-5.8-2.6-5.8-5.8s2.6-5.8,5.8-5.8s5.8,2.6,5.8,5.8S20.7,23.3,17.5,23.3z M17.5,12.7
			c-2.6,0-4.8,2.2-4.8,4.8s2.2,4.8,4.8,4.8c2.6,0,4.8-2.2,4.8-4.8C22.3,14.9,20.1,12.7,17.5,12.7z"/>
	</g>
</g>
</svg>
