<?xml version="1.0" encoding="utf-8"?>
<!-- Generator: Adobe Illustrator 27.0.0, SVG Export Plug-In . SVG Version: 6.00 Build 0)  -->
<svg version="1.1" id="Layer_1" xmlns="http://www.w3.org/2000/svg" xmlns:xlink="http://www.w3.org/1999/xlink" x="0px" y="0px"
	 viewBox="0 0 491.3 491.3" style="enable-background:new 0 0 491.3 491.3;" xml:space="preserve">
<style type="text/css">
	.st0{fill:none;stroke:#000000;stroke-width:8;stroke-miterlimit:10;}
</style>
<g>
	<g>
		<path class="st0" d="M472,224.4c-0.5-3.2-2.6-5.9-5.6-7.3c-2.9-1.4-6.4-1.2-9.2,0.5c-25.1,14.9-43.7,20.8-55,17.7
			c-9.8-2.7-15.2-12-23.4-27c-11.8-21.6-27.9-51.2-74.2-51.2c-22,0-35.5,8-45.3,13.8c-11.5,6.8-16.1,6.8-27.5,0
			C222,165,208.6,157,186.5,157c-46.2,0-60.6,29.5-71.1,51.1c-7.2,14.8-12.1,24-21.5,27c-11.7,3.7-32-2.3-60.2-17.8
			c-2.8-1.5-6.2-1.7-9.1-0.2c-2.9,1.4-4.9,4.1-5.4,7.3c-2.9,17.4,9.2,46.6,28.6,69.5c22.1,26.1,50.4,40.4,79.6,40.4
			c39.4,0,64-14.3,83.7-25.8c13.1-7.6,23.4-13.6,34.5-13.6c11.1,0,21.4,6,34.5,13.6c19.7,11.5,44.3,25.8,83.7,25.8
			c29.2,0,57.5-14.4,79.6-40.4C462.8,271,474.9,241.8,472,224.4z"/>
	</g>
</g>
</svg>
