<?xml version="1.0" encoding="utf-8"?>
<!-- Generator: Adobe Illustrator 26.0.3, SVG Export Plug-In . SVG Version: 6.00 Build 0)  -->
<svg version="1.1" id="Layer_1" xmlns="http://www.w3.org/2000/svg" xmlns:xlink="http://www.w3.org/1999/xlink" x="0px" y="0px"
	 viewBox="0 0 35 35" style="enable-background:new 0 0 35 35;" xml:space="preserve">
<style type="text/css">
	.st0{fill:#75777A;}
</style>
<g>
	<path class="st0" d="M14.9,22.8H3.5l-0.1-0.5c0,0-1-4.4-2.1-9.5C0.7,9.6,1.4,6.4,3.4,4.1c1.7-2,4.1-3.3,6.3-3.3
		c1.8,0,3.4,0.7,4.6,2.1c2,2.3,2.8,6.1,2.1,10.4c-0.9,6.1-1.4,9-1.4,9L14.9,22.8z M4.5,21.6h9.4c0.2-1.1,0.6-3.8,1.3-8.5
		c0.6-3.9-0.1-7.4-1.9-9.4C12.4,2.6,11.2,2,9.7,2C7.8,2,5.8,3.1,4.3,4.8c-1.7,2.1-2.4,4.8-1.8,7.8C3.4,16.7,4.2,20.4,4.5,21.6z"/>
</g>
<g>
	<path class="st0" d="M9,34.2c-4.5,0-5.4-2.9-5.5-4.6c-0.1-1,0-3.9,0-4.1v-0.6h11.3v0.6c0,0.3,0.2,3.3,0,4.4
		C14.3,32.8,12.3,34.2,9,34.2z M4.7,26.2c0,0.9-0.1,2.7,0,3.3C4.8,31.8,6.3,33,9,33s4.3-1.1,4.7-3.2c0.1-0.7,0.1-2.5,0-3.6
		C13.7,26.2,4.7,26.2,4.7,26.2z"/>
</g>
<g>
	<path class="st0" d="M31.5,22.8H20.1L20,22.3c0,0-0.5-2.9-1.4-9C18,9,18.8,5.2,20.7,2.9c1.2-1.4,2.8-2.1,4.6-2.1
		c2.2,0,4.6,1.3,6.3,3.3c2,2.4,2.7,5.5,2.1,8.7c-1.1,5.2-2.1,9.5-2.1,9.5L31.5,22.8z M21.1,21.6h9.4c0.3-1.2,1.1-4.9,2-9
		c0.6-2.9-0.1-5.6-1.8-7.7C29.2,3.1,27.2,2,25.3,2c-1.5,0-2.7,0.6-3.6,1.7c-1.7,2-2.4,5.5-1.9,9.4C20.5,17.8,20.9,20.5,21.1,21.6z"
		/>
</g>
<g>
	<path class="st0" d="M26,34.3c-3.3,0-5.4-1.5-5.9-4.3c-0.2-1.1,0-4.1,0-4.4V25h11.3v0.6c0,0.1,0.1,3,0,4.2
		C31.4,31.4,30.5,34.3,26,34.3z M21.3,26.2c-0.1,1.1-0.1,2.9,0,3.6c0.4,2.2,2,3.3,4.7,3.3s4.2-1.2,4.3-3.4c0.1-0.8,0-2.5,0-3.5
		C30.3,26.2,21.3,26.2,21.3,26.2z"/>
</g>
</svg>
