<?xml version="1.0" encoding="utf-8"?>
<!-- Generator: Adobe Illustrator 27.0.0, SVG Export Plug-In . SVG Version: 6.00 Build 0)  -->
<svg version="1.1" id="Layer_1" xmlns="http://www.w3.org/2000/svg" xmlns:xlink="http://www.w3.org/1999/xlink" x="0px" y="0px"
	 viewBox="0 0 503.4 503.4" style="enable-background:new 0 0 503.4 503.4;" xml:space="preserve">
<style type="text/css">
	.st0{fill:none;stroke:#000000;stroke-width:8;stroke-miterlimit:10;}
</style>
<g>
	<g>
		<path class="st0" d="M177.9,460.6c1,0.7,1.9,1.3,2.9,2l8.3,5.6c3.3,2.2,6.5,4.6,9.7,7c13.9,10.3,28.2,20.9,48.5,20.9
			c20.2,0,34.6-10.6,48.5-20.9c3.2-2.4,6.4-4.7,9.7-7l8.3-5.6c1-0.6,1.9-1.3,2.9-2l17.4-12c7.4-5.4,14.6-11.1,21.4-17.5
			c42.4-40.3,48.3-101,48.3-160.7v-32.1c15.3-20,24-42.9,25.9-68c3.9-52.2-24.7-104.1-73-132.2C305,8.1,257.5,10,256.4,10.1
			c-4-0.2-92.9-3.4-118.7,43.6c-10.7,1-33.6,5.6-49.2,26.9c-21,28.7-20,75.7,2.8,139.7l-0.2,51.1c0,59.3,5.8,119.6,48,159.7
			c6.7,6.4,14,12.1,21.4,17.5L177.9,460.6z"/>
	</g>
</g>
<path class="st0" d="M403.6,238.8v-12.1c0-8.2-1.6-16.2-4.8-23.7c-11.4-27-43.3-39.8-72.7-29.2c-11.9,4.3-35.3,9.5-78.8,9.5
	c-43.5,0-66.8-5.1-78.8-9.5c-29.3-10.6-61.3,2.2-72.7,29.2c-0.4,0.8-0.8,1.7-1,2.6c-1,3.5-3.6,14.7-3.6,14.7"/>
</svg>
