<?xml version="1.0" encoding="utf-8"?>
<!-- Generator: Adobe Illustrator 26.0.3, SVG Export Plug-In . SVG Version: 6.00 Build 0)  -->
<svg version="1.1" id="Layer_1" xmlns="http://www.w3.org/2000/svg" xmlns:xlink="http://www.w3.org/1999/xlink" x="0px" y="0px"
	 viewBox="0 0 35 35" style="enable-background:new 0 0 35 35;" xml:space="preserve">
<style type="text/css">
	.st0{fill:#75777A;}
</style>
<path class="st0" d="M27.9,34.3C28,34.3,28,34.3,27.9,34.3C27.9,34.2,27.9,34.2,27.9,34.3c0-0.1,0-0.1,0-0.2l0,0l0,0l-2-31.2V1.4
	c0-0.2-0.2-0.3-0.3-0.3H9.4c-0.2,0-0.3,0.2-0.3,0.3v1.5L7,34.1l0,0l0,0c0,0,0,0,0,0.1c0,0,0,0,0,0.1c0,0,0,0,0,0.1c0,0,0,0,0,0.1
	c0,0,0,0,0.1,0c0,0,0,0,0.1,0c0,0,0,0,0.1,0c0,0,0,0,0.1,0l0,0h6.7h0.1l0,0c0,0,0,0,0.1,0l0,0c0,0,0,0,0-0.1c0,0,0,0,0-0.1l0,0
	l3.1-21l3.1,21l0,0c0,0,0,0,0,0.1c0,0,0,0,0,0.1l0,0c0,0,0,0,0.1,0l0,0h0.1h6.7l0,0c0,0,0,0,0.1,0c0,0,0,0,0.1,0
	C27.8,34.5,27.8,34.4,27.9,34.3C27.9,34.4,27.9,34.4,27.9,34.3C27.9,34.4,27.9,34.4,27.9,34.3L27.9,34.3z M21,32.7h6.2l0.1,1.2h-6.1
	L21,32.7z M9.8,1.8h15.4v0.8H9.8V1.8z M13.8,33.8H7.7l0.1-1.2H14L13.8,33.8z M17.8,10.8L17.8,10.8c0-0.1,0-0.1-0.1-0.1l0,0
	c0,0,0,0-0.1-0.1l0,0h-0.1l0,0c0,0,0,0-0.1,0l0,0l0,0h-0.1l0,0c0,0,0,0-0.1,0.1l0,0c0,0,0,0,0,0.1c0,0,0,0,0,0.1l0,0L14.1,32H7.8
	l2-28.8h15.5L27.2,32H21L17.8,10.8L17.8,10.8L17.8,10.8z"/>
</svg>
