<?xml version="1.0" encoding="utf-8"?>
<!-- Generator: Adobe Illustrator 25.4.1, SVG Export Plug-In . SVG Version: 6.00 Build 0)  -->
<svg version="1.1" id="Layer_1" xmlns="http://www.w3.org/2000/svg" xmlns:xlink="http://www.w3.org/1999/xlink" x="0px" y="0px"
	 viewBox="0 0 193 40" style="enable-background:new 0 0 193 40;" xml:space="preserve">
<style type="text/css">
	.st0{fill:url(#SVGID_1_);}
	.st1{fill:#1AB3F4;}
</style>
<linearGradient id="SVGID_1_" gradientUnits="userSpaceOnUse" x1="20.5509" y1="42" x2="20.5509" y2="2.6852" gradientTransform="matrix(1 0 0 -1 0 42)">
	<stop  offset="0" style="stop-color:#19D8F3"/>
	<stop  offset="1" style="stop-color:#197FF3"/>
</linearGradient>
<path class="st0" d="M39.3,18.9c0,0-4.6-3.3-5.5-4.9c-0.9-1.6-1.5-7.2-1.5-7.2C27.1-2.3,14-2.3,8.8,6.8c0,0-0.5,5.6-1.5,7.2
	c-0.9,1.6-5.5,4.9-5.5,4.9C-3.4,28,3.1,39.3,13.6,39.3c0,0,5.1-2.3,7-2.3c1.8,0,7,2.3,7,2.3C38,39.3,44.5,28,39.3,18.9L39.3,18.9z
	 M20.5,32.4c-5.9,0-10.7-4.8-10.7-10.7c0-5.9,4.8-10.7,10.7-10.7c5.9,0,10.7,4.8,10.7,10.7C31.2,27.6,26.5,32.4,20.5,32.4z"/>
<path d="M67.3,9.1v6h-6v16.7h-7.5V15.1h-6v-6H67.3z M88.8,9.1v22.7h-7.5v-8.3h-5.4v8.3h-7.5V9.1h7.5v8.3h5.4V9.1H88.8z M90.2,9.1
	h16.2v6h-8.7v2.6h7.8v5.5h-7.8v2.6h8.9v6H90.2V9.1z M131.2,9.1v22.7h-7.5v-8.3h-5.4v8.3h-7.5V9.1h7.5v8.3h5.4V9.1H131.2z
	 M132.5,23.1v-14h7.5v13.1c0,3.1,0.9,4,2.7,4c1.8,0,2.7-0.9,2.7-4V9.1h7.5v14c0,6.1-4.4,9.2-10.2,9.2
	C136.9,32.3,132.5,29.2,132.5,23.1z M154.3,9.1h11.8c5.4,0,8.4,1.8,8.4,5.5c0,3.1-2,5.1-4.8,5.4c3.3,0.3,5.8,2.5,5.8,5.7
	c0,4-3.8,6.1-9.5,6.1h-11.7V9.1z M165,18c1.2,0,2-0.5,2-1.8c0-1.2-0.7-1.7-2-1.7h-3.3V18H165z M161.8,26.4h4c1.3,0,2.1-0.5,2.1-1.8
	c0-1.3-0.8-1.8-2.1-1.8h-4V26.4z"/>
<path class="st1" d="M182.7,25.4v6.3h-6.2v-6.3H182.7z"/>
</svg>
