<svg width="181" height="33" viewBox="0 0 181 33" fill="none" xmlns="http://www.w3.org/2000/svg">
<path d="M31.597 15.8904C31.597 15.8904 27.914 13.2669 27.1804 11.993C26.4469 10.7192 26.0106 6.2323 26.0106 6.2323C21.796 -1.00321 11.2767 -1.00321 7.07921 6.2323C7.07921 6.2323 6.64289 10.7192 5.90934 11.993C5.17579 13.2669 1.47755 15.8904 1.47755 15.8904C-2.71989 23.1411 2.52357 32.1945 10.9356 32.1945C10.9356 32.1945 15.0549 30.3785 16.5392 30.3785C18.0234 30.3785 22.1427 32.1945 22.1427 32.1945C30.5548 32.1945 35.8154 23.1411 31.6008 15.8904H31.597ZM16.5354 26.6972C11.7758 26.6972 7.91946 22.8624 7.91946 18.1253C7.91946 13.3882 11.7739 9.55339 16.5354 9.55339C21.2968 9.55339 25.1513 13.3882 25.1513 18.1253C25.1513 22.8624 21.2968 26.6972 16.5354 26.6972Z" fill="url(#paint0_linear_61_716)"/>
<path d="M61.0539 4.80056V10.9162H54.9222V27.8148H47.2776V10.9162H41.1458V4.80056H61.0539ZM82.79 4.80056V27.8148H75.1454V19.4299H69.6735V27.8148H62.0289V4.80056H69.6735V13.2338H75.1454V4.80056H82.79ZM84.2523 4.80056H100.684V10.9162H91.8969V13.5395H99.799V19.0919H91.8969V21.6991H100.926V27.8148H84.2523V4.80056ZM125.835 4.80056V27.8148H118.19V19.4299H112.718V27.8148H105.074V4.80056H112.718V13.2338H118.19V4.80056H125.835ZM127.14 18.9632V4.80056H134.785V18.078C134.785 21.1922 135.686 22.1015 137.521 22.1015C139.355 22.1015 140.256 21.1922 140.256 18.078V4.80056H147.901V18.9632C147.901 25.1835 143.451 28.2976 137.521 28.2976C131.59 28.2976 127.14 25.1835 127.14 18.9632ZM149.206 4.80056H161.204C166.684 4.80056 169.718 6.59503 169.718 10.4173C169.718 13.5556 167.674 15.5432 164.858 15.8651C168.189 16.1709 170.692 18.3758 170.692 21.6026C170.692 25.6261 166.805 27.8148 161.051 27.8148H149.206V4.80056ZM160.15 13.8131C161.389 13.8131 162.154 13.274 162.154 12.0106C162.154 10.7714 161.413 10.2725 160.15 10.2725H156.851V13.8131H160.15ZM156.851 22.3429H160.874C162.242 22.3429 163.015 21.8118 163.015 20.5001C163.015 19.1804 162.234 18.6413 160.874 18.6413H156.851V22.3429Z" fill="white"/>
<path d="M178.052 21.3773V27.8148H171.775V21.3773H178.052Z" fill="#1AB3F4"/>
<defs>
<linearGradient id="paint0_linear_61_716" x1="16.5392" y1="0.80519" x2="16.5392" y2="32.1945" gradientUnits="userSpaceOnUse">
<stop stop-color="#19D8F3"/>
<stop offset="1" stop-color="#197FF3"/>
</linearGradient>
</defs>
</svg>
