<?xml version="1.0" encoding="utf-8"?>
<!-- Generator: Adobe Illustrator 27.0.0, SVG Export Plug-In . SVG Version: 6.00 Build 0)  -->
<svg version="1.1" id="Layer_1" xmlns="http://www.w3.org/2000/svg" xmlns:xlink="http://www.w3.org/1999/xlink" x="0px" y="0px"
	 viewBox="0 0 503.6 503.6" style="enable-background:new 0 0 503.6 503.6;" xml:space="preserve">
<style type="text/css">
	.st0{fill:none;stroke:#000000;stroke-width:6;stroke-miterlimit:10;}
</style>
<g transform="translate(1 1)">
	<g>
		<path class="st0" d="M135.4,135.4v7.7c0,50,31.5,93.9,79.2,110c7.7,2.3,13.1,10,13.1,17.7v64.6l-15.4,106.9v0.8
			c0,21.5,16.9,38.5,38.5,38.5s38.5-16.9,38.5-38.5l-15.4-108.5V270c0-7.7,5.4-15.4,13.1-17.7c47.7-15.4,79.2-59.2,79.2-109.2v-7.7
			L135.4,135.4z"/>
	</g>
</g>
<line class="st0" x1="136.4" y1="136.4" x2="136.4" y2="41.3"/>
<line class="st0" x1="367.2" y1="136.4" x2="367.2" y2="41.3"/>
<line class="st0" x1="188" y1="136.4" x2="188" y2="41.3"/>
<line class="st0" x1="230.5" y1="136.4" x2="230.5" y2="41.3"/>
<line class="st0" x1="273.1" y1="136.4" x2="273.1" y2="41.3"/>
<line class="st0" x1="315.6" y1="136.4" x2="315.6" y2="41.3"/>
</svg>
