<?xml version="1.0" encoding="utf-8"?>
<!-- Generator: Adobe Illustrator 26.0.3, SVG Export Plug-In . SVG Version: 6.00 Build 0)  -->
<svg version="1.1" id="Layer_1" xmlns="http://www.w3.org/2000/svg" xmlns:xlink="http://www.w3.org/1999/xlink" x="0px" y="0px"
	 viewBox="0 0 35 35" style="enable-background:new 0 0 35 35;" xml:space="preserve">
<style type="text/css">
	.st0{fill:#75777A;}
</style>
<path class="st0" d="M27,1.8L27,1.8c-0.2,0-0.2,0.1-0.3,0.2L3.6,26.1c-0.1,0.1-0.1,0.2-0.1,0.3l-0.6,6.3c0,0.1,0,0.3,0.2,0.4
	c0.1,0.1,0.3,0.1,0.4,0.1l6.2-0.8l0,0c0.1,0,0.2-0.1,0.3-0.1L33.1,8.1c0.2-0.2,0.2-0.5,0-0.7L27.4,2C27.3,1.8,27.1,1.8,27,1.8
	L27,1.8z M27.1,3l5,4.8l-2,2.1l-5-4.7L27.1,3z M24.3,5.8l5,4.8L10,30.8L5,26L24.3,5.8z M4.4,26.9l4.8,4.6l-5.3,0.7L4.4,26.9
	L4.4,26.9z"/>
</svg>
