<?xml version="1.0" encoding="utf-8"?>
<!-- Generator: Adobe Illustrator 26.0.3, SVG Export Plug-In . SVG Version: 6.00 Build 0)  -->
<svg version="1.1" id="Layer_1" xmlns="http://www.w3.org/2000/svg" xmlns:xlink="http://www.w3.org/1999/xlink" x="0px" y="0px"
	 viewBox="0 0 35 35" style="enable-background:new 0 0 35 35;" xml:space="preserve">
<style type="text/css">
	.st0{fill:#75777A;}
</style>
<path class="st0" d="M17.5,9.3c1.7,0,3.1-1.4,3.1-3.1c0-1.7-1.4-3.1-3.1-3.1c-1.7,0-3.1,1.4-3.1,3.1C14.4,7.9,15.8,9.3,17.5,9.3z
	 M17.5,4c1.2,0,2.1,0.9,2.1,2.1c0,1.2-0.9,2.1-2.1,2.1c-1.2,0-2.1-0.9-2.1-2.1C15.4,5,16.3,4,17.5,4z"/>
<path class="st0" d="M20.9,23.7v-1.1c0.9-0.9,1.5-2.1,1.5-3.5l0-4.5c0-2.7-2.2-4.9-4.9-4.9c-2.7,0-4.9,2.2-4.9,4.9v4.5
	c0,1.4,0.6,2.6,1.5,3.5v1.1c-3.5,0.6-5.9,2-5.9,3.8c0,2.3,4,4.1,9.3,4.1c5.3,0,9.3-1.8,9.3-4.1C26.8,25.7,24.4,24.3,20.9,23.7
	L20.9,23.7z M13.6,19.1v-4.5c0-2.1,1.7-3.9,3.9-3.9c2.1,0,3.9,1.7,3.9,3.9v4.5c0,0.6-0.2,1.2-0.4,1.8l0-3.5h-1v8.6
	c0,1.3-1.1,2.4-2.4,2.4c-1.3,0-2.4-1.1-2.4-2.4v-8.6h-1v3.5C13.8,20.4,13.6,19.8,13.6,19.1L13.6,19.1z M17.5,30.6
	c-4.9,0-8.3-1.6-8.3-3.1c0-1.1,1.9-2.3,4.9-2.8v1.2c0,1.9,1.5,3.4,3.4,3.4c1.9,0,3.4-1.5,3.4-3.4v-1.2c3,0.5,4.9,1.7,4.9,2.8
	C25.8,29,22.4,30.6,17.5,30.6z"/>
</svg>
