<?xml version="1.0" encoding="utf-8"?>
<!-- Generator: Adobe Illustrator 26.0.3, SVG Export Plug-In . SVG Version: 6.00 Build 0)  -->
<svg version="1.1" id="Layer_1" xmlns="http://www.w3.org/2000/svg" xmlns:xlink="http://www.w3.org/1999/xlink" x="0px" y="0px"
	 viewBox="0 0 35 35" style="enable-background:new 0 0 35 35;" xml:space="preserve">
<style type="text/css">
	.st0{fill:#75777A;}
</style>
<g>
	<path class="st0" d="M11.9,13.2c-1.3,0-2.6,0.5-3.3,1.4c-0.2,0.2-0.2,0.6,0.1,0.8c0.1,0.1,0.2,0.1,0.4,0.1s0.3-0.1,0.4-0.2
		c0.5-0.6,1.5-1,2.4-1c0.9,0,1.8,0.4,2.4,1c0.2,0.2,0.6,0.2,0.8,0s0.2-0.6,0-0.8C14.4,13.7,13.2,13.2,11.9,13.2L11.9,13.2z"/>
	<path class="st0" d="M13.5,17.3c0,0.9-0.7,1.6-1.6,1.6c-0.9,0-1.6-0.7-1.6-1.6s0.7-1.6,1.6-1.6C12.8,15.7,13.5,16.4,13.5,17.3"/>
	<path class="st0" d="M23.1,13.2c-1.3,0-2.6,0.5-3.3,1.4c-0.2,0.2-0.2,0.6,0.1,0.8c0.1,0.1,0.2,0.1,0.4,0.1c0.2,0,0.3-0.1,0.4-0.2
		c0.5-0.6,1.5-1,2.4-1s1.8,0.4,2.4,1c0.2,0.2,0.6,0.2,0.8,0c0.2-0.2,0.2-0.6,0-0.8C25.6,13.7,24.4,13.2,23.1,13.2L23.1,13.2z"/>
	<path class="st0" d="M24.7,17.3c0,0.9-0.7,1.6-1.6,1.6s-1.6-0.7-1.6-1.6s0.7-1.6,1.6-1.6C24,15.7,24.7,16.4,24.7,17.3"/>
	<path class="st0" d="M30.7,12.6c0-6.6-5.4-12-12-12h-2.4c-6.6,0-12,5.4-12,12c0,0,0,6.7,0,9.8c0,8.3,6.2,12.2,12,12.2h2.4
		c5.8,0,12.2-4.3,12.1-12C30.8,19.3,30.7,12.6,30.7,12.6z M29.6,22.4c0,6-4.9,10.7-10.9,10.7h-2.4c-6,0-10.9-4.7-10.9-10.7v-9.9
		c0-6,4.9-10.9,10.9-10.9h2.4c6,0,10.9,4.9,10.9,10.9V22.4z"/>
</g>
</svg>
