<?xml version="1.0" encoding="utf-8"?>
<!-- Generator: Adobe Illustrator 26.0.3, SVG Export Plug-In . SVG Version: 6.00 Build 0)  -->
<svg version="1.1" id="Layer_1" xmlns="http://www.w3.org/2000/svg" xmlns:xlink="http://www.w3.org/1999/xlink" x="0px" y="0px"
	 viewBox="0 0 35 35" style="enable-background:new 0 0 35 35;" xml:space="preserve">
<style type="text/css">
	.st0{fill:#75777A;}
</style>
<path class="st0" d="M4.4,4.7c-1.9,0-3.5,1.6-3.5,3.4v18.4c0,1.9,1.6,3.4,3.5,3.4h15.8c1.9,0,3.5-1.6,3.5-3.4v-5.8
	c0-0.2-0.1-0.3-0.2-0.4s-0.3-0.2-0.4-0.2c-0.2,0-0.3,0.1-0.4,0.2s-0.2,0.3-0.2,0.4v5.8c0,1.2-1.1,2.3-2.3,2.3H4.4
	c-1.2,0-2.3-1.1-2.3-2.3V8.2c0-1.2,1.1-2.3,2.3-2.3h15.8c1.2,0,2.3,1.1,2.3,2.3v5.2c0,0.2,0.1,0.3,0.2,0.4c0.1,0.1,0.3,0.2,0.4,0.2
	c0.2,0,0.3-0.1,0.4-0.2c0.1-0.1,0.2-0.3,0.2-0.4V8.2c0-1.9-1.6-3.4-3.5-3.4L4.4,4.7z M27.5,12.2L27.5,12.2c-0.2,0-0.5,0.2-0.5,0.5
	s0,4.1,0,4.1H15.4c0,0,0,0-0.1,0c-0.2,0-0.3,0.1-0.4,0.2c-0.1,0.1-0.2,0.3-0.1,0.4c0,0.2,0.1,0.3,0.2,0.4c0.1,0.1,0.3,0.2,0.4,0.1
	H27c0,0,0,3.9,0,4c0,0.2,0.1,0.3,0.2,0.4s0.3,0.2,0.4,0.2c0.2,0,0.3-0.1,0.4-0.2l5.9-4.6l0,0c0.2-0.2,0.2-0.6,0-0.8L28,12.4l0,0
	C27.9,12.3,27.7,12.2,27.5,12.2C27.6,12.2,27.6,12.2,27.5,12.2L27.5,12.2z"/>
</svg>
