<?xml version="1.0" encoding="utf-8"?>
<!-- Generator: Adobe Illustrator 26.0.3, SVG Export Plug-In . SVG Version: 6.00 Build 0)  -->
<svg version="1.1" id="Layer_1" xmlns="http://www.w3.org/2000/svg" xmlns:xlink="http://www.w3.org/1999/xlink" x="0px" y="0px"
	 viewBox="0 0 35 35" style="enable-background:new 0 0 35 35;" xml:space="preserve">
<style type="text/css">
	.st0{fill:#75777A;}
</style>
<path class="st0" d="M12.4,3.7c-0.2,0-0.3,0.1-0.4,0.2l-1.7,3.4H3.7c-1.8,0-3.2,1.4-3.2,3.2V28c0,1.8,1.4,3.2,3.2,3.2h27.7
	c1.8,0,3.2-1.4,3.2-3.2V10.6c0-1.8-1.4-3.2-3.2-3.2h-6.6L23,3.9c-0.1-0.2-0.2-0.2-0.4-0.2H12.4L12.4,3.7z M12.7,4.6h9.6L24,8
	c0.1,0.2,0.2,0.3,0.4,0.3h6.9c1.3,0,2.3,1,2.3,2.3v17.5c0,1.3-1,2.3-2.3,2.3H3.7c-1.3,0-2.3-1-2.3-2.3V10.6c0-1.3,1-2.3,2.3-2.3h6.9
	c0.2,0,0.3-0.1,0.4-0.3L12.7,4.6L12.7,4.6z M17.5,12c-4.1,0-7.4,3.3-7.4,7.4s3.3,7.4,7.4,7.4s7.4-3.3,7.4-7.4S21.6,12,17.5,12z
	 M17.5,12.9c3.6,0,6.5,2.9,6.5,6.5s-2.9,6.5-6.5,6.5s-6.5-3-6.5-6.6C11,15.8,13.9,12.9,17.5,12.9z"/>
</svg>
